<?xml version="1.0" encoding="UTF-8"?>
<svg width="74px" height="77px" viewBox="0 0 74 77" version="1.1" xmlns="http://www.w3.org/2000/svg" xmlns:xlink="http://www.w3.org/1999/xlink">
    <!-- Generator: Sketch 55.2 (78181) - https://sketchapp.com -->
    <title>btn_angry</title>
    <desc>Created with Sketch.</desc>
    <defs>
        <rect id="path-1" x="0" y="0" width="56" height="56" rx="14"></rect>
        <filter x="-34.8%" y="-18.8%" width="169.6%" height="175.0%" filterUnits="objectBoundingBox" id="filter-2">
            <feMorphology radius="7" operator="erode" in="SourceAlpha" result="shadowSpreadOuter1"></feMorphology>
            <feOffset dx="0" dy="12" in="shadowSpreadOuter1" result="shadowOffsetOuter1"></feOffset>
            <feGaussianBlur stdDeviation="11.5" in="shadowOffsetOuter1" result="shadowBlurOuter1"></feGaussianBlur>
            <feColorMatrix values="0 0 0 0 0.839215686   0 0 0 0 0.345098039   0 0 0 0 0.388235294  0 0 0 1 0" type="matrix" in="shadowBlurOuter1"></feColorMatrix>
        </filter>
    </defs>
    <g id="Page-1" stroke="none" stroke-width="1" fill="none" fill-rule="evenodd">
        <g id="Real-Time-Voting-App-Main-Screen-ver.2" transform="translate(-301.000000, -686.000000)">
            <g id="5" transform="translate(300.000000, 681.000000)">
                <g id="btn_angry" transform="translate(10.000000, 5.000000)">
                    <g id="Rectangle">
                        <use fill="black" fill-opacity="1" filter="url(#filter-2)" xlink:href="#path-1"></use>
                        <use fill="#D65864" fill-rule="evenodd" xlink:href="#path-1"></use>
                    </g>
                    <path d="M27.754386,46.9122807 C32.7733947,46.9122807 36.8421053,46.3632611 36.8421053,44.9907121 C36.8421053,44.4416925 32.7733947,42.7368421 27.754386,42.7368421 C22.7353772,42.7368421 18.6666667,44.7162023 18.6666667,44.9907121 C18.6666667,46.0519651 22.7353772,46.9122807 27.754386,46.9122807 Z" id="mouth" fill="#252B39"></path>
                    <path d="M37.8853825,34.3041874 C36.4519754,34.4198624 34.9240064,34.4542084 33.2318187,34.4366638 C32.6456476,34.4305864 32.449463,34.4289884 32.1754386,34.4289884 C31.4971942,34.4289884 30.9473684,33.8791627 30.9473684,33.2009182 C30.9473684,32.5226738 31.4971942,31.972848 32.1754386,31.9728481 C32.4612571,31.9728481 32.6618181,31.9744817 33.2572827,31.9806555 C39.2870773,32.0431725 42.9607023,31.4277802 48.0058429,28.6442544 C48.5996986,28.3166099 49.3467221,28.5324167 49.6743666,29.1262724 C50.0020111,29.720128 49.7862043,30.4671516 49.1923487,30.7947961 C46.8322437,32.096923 44.7373518,32.9648261 42.6061766,33.5259231 C43.1420385,34.059623 43.4736842,34.7982125 43.4736842,35.6142621 C43.4736842,37.2420487 42.1541024,38.5616305 40.5263158,38.5616305 C38.8985292,38.5616305 37.5789474,37.2420487 37.5789474,35.6142621 C37.5789474,35.1436646 37.6892385,34.6988269 37.8853825,34.3041874 Z M13.3380269,33.5832492 C11.1298929,33.0245557 8.97180932,32.142122 6.52978112,30.7947961 C5.93592544,30.4671516 5.72011864,29.720128 6.04776316,29.1262724 C6.37540768,28.5324167 7.12243119,28.3166099 7.71628688,28.6442544 C12.7614274,31.4277802 16.4350525,32.0431725 22.4648471,31.9806555 C23.0603117,31.9744817 23.2608727,31.9728481 23.5466912,31.9728481 C24.2249356,31.972848 24.7747614,32.5226738 24.7747614,33.2009182 C24.7747614,33.8791627 24.2249356,34.4289884 23.5466912,34.4289884 C23.2726668,34.4289884 23.0764821,34.4305864 22.490311,34.4366638 C20.9113334,34.4530347 19.4753365,34.4242257 18.1257294,34.3263207 C18.3150642,34.7154291 18.4212796,35.1524416 18.4212796,35.6142621 C18.4212796,37.2420487 17.1016978,38.5616305 15.4739112,38.5616305 C13.8461246,38.5616305 12.5265428,37.2420487 12.5265428,35.6142621 C12.5265428,34.8270424 12.8351693,34.1119064 13.3380269,33.5832492 Z" id="eyes" fill="#252B39"></path>
                </g>
            </g>
        </g>
    </g>
</svg>