<?xml version="1.0" encoding="UTF-8"?>
<svg width="74px" height="77px" viewBox="0 0 74 77" version="1.1" xmlns="http://www.w3.org/2000/svg" xmlns:xlink="http://www.w3.org/1999/xlink">
    <!-- Generator: Sketch 55.2 (78181) - https://sketchapp.com -->
    <title>btn_sad</title>
    <desc>Created with Sketch.</desc>
    <defs>
        <rect id="path-1" x="0" y="0" width="56" height="56" rx="14"></rect>
        <filter x="-34.8%" y="-18.8%" width="169.6%" height="175.0%" filterUnits="objectBoundingBox" id="filter-2">
            <feMorphology radius="7" operator="erode" in="SourceAlpha" result="shadowSpreadOuter1"></feMorphology>
            <feOffset dx="0" dy="12" in="shadowSpreadOuter1" result="shadowOffsetOuter1"></feOffset>
            <feGaussianBlur stdDeviation="11.5" in="shadowOffsetOuter1" result="shadowBlurOuter1"></feGaussianBlur>
            <feColorMatrix values="0 0 0 0 0.179348661   0 0 0 0 0.611861647   0 0 0 0 0.780061141  0 0 0 1 0" type="matrix" in="shadowBlurOuter1"></feColorMatrix>
        </filter>
    </defs>
    <g id="Page-1" stroke="none" stroke-width="1" fill="none" fill-rule="evenodd">
        <g id="Real-Time-Voting-App-Main-Screen-ver.2" transform="translate(-226.000000, -686.000000)">
            <g id="4" transform="translate(225.000000, 681.000000)">
                <g id="btn_sad" transform="translate(10.000000, 5.000000)">
                    <g id="Rectangle">
                        <use fill="black" fill-opacity="1" filter="url(#filter-2)" xlink:href="#path-1"></use>
                        <use fill="#69D5FF" fill-rule="evenodd" xlink:href="#path-1"></use>
                    </g>
                    <path d="M35.9562399,42.294447 C33.9731525,40.1810181 31.1974945,38.9565217 28.2274476,38.9565217 C25.2790361,38.9565217 22.52172,40.1631643 20.5408491,42.2497417 C19.9830642,42.837292 20.0113719,43.7618377 20.6040762,44.3147723 C21.1967805,44.8677069 22.1294362,44.8396453 22.6872211,44.252095 C24.1167394,42.7462924 26.1002906,41.8782609 28.2274476,41.8782609 C30.3701835,41.8782609 32.3669949,42.7591649 33.798146,44.2843806 C34.3524712,44.8751397 35.2849464,44.9085828 35.8808876,44.3590778 C36.4768287,43.8095728 36.5105652,42.8852061 35.9562399,42.294447 L35.9562399,42.294447 Z" id="mouth" fill="#252B39" fill-rule="nonzero"></path>
                    <path d="M49.122807,51.1304348 C49.122807,53.8198214 46.923504,56 44.2105263,56 C41.4975486,56 39.2982456,53.8198214 39.2982456,51.1304348 C39.2982456,50.3422412 39.487151,49.5977852 39.8225291,48.9391304 L44.2105263,40.9043478 L48.5985235,48.9391304 C48.9339016,49.5977852 49.122807,50.3422412 49.122807,51.1304348 Z" id="tear" fill="#2971C5"></path>
                    <path d="M13.3975476,21.6443376 C12.2967254,22.0632291 11.4283309,22.8759215 10.9378425,23.9130692 C10.6499433,24.5218379 9.91872137,24.7839834 9.30461262,24.4985877 C8.69050388,24.2131919 8.4260588,23.4883285 8.71395801,22.8795598 C9.47128486,21.278177 10.8178696,20.0179671 12.5173456,19.3712722 C14.0630388,18.7830956 15.736709,18.7644103 17.2705607,19.2881467 C17.9118298,19.5071092 18.25262,20.1999443 18.0317367,20.8356372 C17.8108535,21.4713301 17.1119409,21.8091568 16.4706718,21.5901943 C15.4779101,21.251214 14.3989988,21.2632593 13.3975476,21.6443376 Z M42.5579244,21.8420695 C41.5564732,21.4609912 40.4775619,21.448946 39.4848002,21.7879263 C38.8435311,22.0068888 38.1446185,21.669062 37.9237353,21.0333691 C37.702852,20.3976763 38.0436422,19.7048412 38.6849113,19.4858787 C40.2187629,18.9621423 41.8924332,18.9808275 43.4381264,19.5690041 C45.1376024,20.2156991 46.4841871,21.4759089 47.241514,23.0772918 C47.5294132,23.6860604 47.2649681,24.4109239 46.6508594,24.6963196 C46.0367506,24.9817154 45.3055287,24.7195698 45.0176295,24.1108012 C44.527141,23.0736535 43.6587466,22.2609611 42.5579244,21.8420695 Z M40.2807018,33.6 C38.3816174,33.6 36.8421053,31.8639861 36.8421053,29.7225045 C36.8421053,27.5810228 38.3816174,25.8450089 40.2807018,25.8450089 C42.1797862,25.8450089 43.7192982,27.5810228 43.7192982,29.7225045 C43.7192982,31.8639861 42.1797862,33.6 40.2807018,33.6 Z M15.7192982,33.6 C13.8202138,33.6 12.2807018,31.8639861 12.2807018,29.7225045 C12.2807018,27.5810228 13.8202138,25.8450089 15.7192982,25.8450089 C17.6183826,25.8450089 19.1578947,27.5810228 19.1578947,29.7225045 C19.1578947,31.8639861 17.6183826,33.6 15.7192982,33.6 Z" id="eyes" fill="#252B39" fill-rule="nonzero"></path>
                </g>
            </g>
        </g>
    </g>
</svg>