<?xml version="1.0" encoding="UTF-8"?>
<svg width="74px" height="77px" viewBox="0 0 74 77" version="1.1" xmlns="http://www.w3.org/2000/svg" xmlns:xlink="http://www.w3.org/1999/xlink">
    <!-- Generator: Sketch 55.2 (78181) - https://sketchapp.com -->
    <title>btn_wow</title>
    <desc>Created with Sketch.</desc>
    <defs>
        <rect id="path-1" x="0" y="0" width="56" height="56" rx="14"></rect>
        <filter x="-34.8%" y="-18.8%" width="169.6%" height="175.0%" filterUnits="objectBoundingBox" id="filter-2">
            <feMorphology radius="7" operator="erode" in="SourceAlpha" result="shadowSpreadOuter1"></feMorphology>
            <feOffset dx="0" dy="12" in="shadowSpreadOuter1" result="shadowOffsetOuter1"></feOffset>
            <feGaussianBlur stdDeviation="11.5" in="shadowOffsetOuter1" result="shadowBlurOuter1"></feGaussianBlur>
            <feColorMatrix values="0 0 0 0 0.729411765   0 0 0 0 0.42745098   0 0 0 0 0.592156863  0 0 0 1 0" type="matrix" in="shadowBlurOuter1"></feColorMatrix>
        </filter>
    </defs>
    <g id="Page-1" stroke="none" stroke-width="1" fill="none" fill-rule="evenodd">
        <g id="Real-Time-Voting-App-Main-Screen-ver.2" transform="translate(-151.000000, -686.000000)">
            <g id="3" transform="translate(150.000000, 681.000000)">
                <g id="btn_wow" transform="translate(10.000000, 5.000000)">
                    <g id="Rectangle">
                        <use fill="black" fill-opacity="1" filter="url(#filter-2)" xlink:href="#path-1"></use>
                        <use fill="#BA6D97" fill-rule="evenodd" xlink:href="#path-1"></use>
                    </g>
                    <g id="Group" transform="translate(14.000000, 11.666667)" fill="#252B37">
                        <ellipse id="mouth" cx="14.8625208" cy="25.299071" rx="5.17473118" ry="7"></ellipse>
                        <path d="M25.8792824,15.1847987 C23.9401007,15.5239933 22.0138973,13.8063455 21.5769866,11.3483249 C21.140076,8.89030434 22.3579074,6.62271339 24.2970891,6.28351877 C26.2362708,5.94432415 28.1624742,7.66197196 28.5993849,10.1199925 C29.0362955,12.5780131 27.8184642,14.8456041 25.8792824,15.1847987 Z M3.24567803,15.3373241 C1.3064963,14.9981295 0.0886649565,12.7305385 0.525575587,10.272518 C0.962486218,7.8144974 2.88868966,6.09684959 4.82787138,6.43604421 C6.76705311,6.77523882 7.98488446,9.04282977 7.54797383,11.5008503 C7.1110632,13.9588709 5.18485976,15.6765187 3.24567803,15.3373241 Z M28.4764157,1.76015366 C28.8502693,2.15622276 28.8296708,2.77794388 28.4304076,3.14880665 C28.0311444,3.51966942 27.4044094,3.49923565 27.0305558,3.10316655 C26.3936285,2.42839111 25.523281,2.01931292 24.5736647,1.96994378 C23.7097701,1.92503118 22.8792374,2.18250779 22.2030254,2.68810588 C21.7662298,3.01469427 21.1452497,2.92818643 20.8160275,2.49488521 C20.4868054,2.06158399 20.5740108,1.44557174 21.0108064,1.11898335 C22.0555778,0.337816588 23.3439485,-0.0615961643 24.6773296,0.00772434019 C26.1433702,0.083941621 27.4929835,0.718282932 28.4764157,1.76015366 Z M4.17020361,2.14294893 C3.22058728,2.19231807 2.35023981,2.60139626 1.7133125,3.2761717 C1.33945891,3.6722408 0.712723906,3.69267457 0.313460701,3.3218118 C-0.0858025039,2.95094903 -0.106401061,2.32922791 0.267452536,1.93315881 C1.25088477,0.891288083 2.60049805,0.256946772 4.06653873,0.180729491 C5.3999198,0.111408986 6.68829051,0.510821739 7.73306186,1.2919885 C8.16985744,1.6185769 8.25706293,2.23458914 7.92784076,2.66789036 C7.59861859,3.10119158 6.97763851,3.18769942 6.54084292,2.86111103 C5.86463086,2.35551294 5.03409822,2.09803633 4.17020361,2.14294893 Z" id="eyes"></path>
                    </g>
                </g>
            </g>
        </g>
    </g>
</svg>