<?xml version="1.0" encoding="UTF-8"?>
<svg width="74px" height="77px" viewBox="0 0 74 77" version="1.1" xmlns="http://www.w3.org/2000/svg" xmlns:xlink="http://www.w3.org/1999/xlink">
    <!-- Generator: Sketch 55.2 (78181) - https://sketchapp.com -->
    <title>btn_smile</title>
    <desc>Created with Sketch.</desc>
    <defs>
        <rect id="path-1" x="0" y="0" width="56" height="56" rx="14"></rect>
        <filter x="-34.8%" y="-18.8%" width="169.6%" height="175.0%" filterUnits="objectBoundingBox" id="filter-2">
            <feMorphology radius="7" operator="erode" in="SourceAlpha" result="shadowSpreadOuter1"></feMorphology>
            <feOffset dx="0" dy="12" in="shadowSpreadOuter1" result="shadowOffsetOuter1"></feOffset>
            <feGaussianBlur stdDeviation="11.5" in="shadowOffsetOuter1" result="shadowBlurOuter1"></feGaussianBlur>
            <feColorMatrix values="0 0 0 0 0.533333333   0 0 0 0 0.752941176   0 0 0 0 0.607843137  0 0 0 1 0" type="matrix" in="shadowBlurOuter1"></feColorMatrix>
        </filter>
    </defs>
    <g id="Page-1" stroke="none" stroke-width="1" fill="none" fill-rule="evenodd">
        <g id="Real-Time-Voting-App-Main-Screen-ver.2" transform="translate(-76.000000, -686.000000)">
            <g id="2" transform="translate(75.000000, 681.000000)">
                <g id="btn_smile" transform="translate(10.000000, 5.000000)">
                    <g id="Rectangle">
                        <use fill="black" fill-opacity="1" filter="url(#filter-2)" xlink:href="#path-1"></use>
                        <use fill="#88C09B" fill-rule="evenodd" xlink:href="#path-1"></use>
                    </g>
                    <path d="M35.6492267,41.8379253 C33.6661392,39.7244963 30.8904812,38.5 27.9204343,38.5 C24.9720228,38.5 22.2147067,39.7066426 20.2338358,41.7932199 C19.6760509,42.3807702 19.7043586,43.3053159 20.2970629,43.8582505 C20.8897672,44.4111851 21.8224229,44.3831235 22.3802078,43.7955732 C23.8097261,42.2897707 25.7932773,41.4217391 27.9204343,41.4217391 C30.0631702,41.4217391 32.0599816,42.3026432 33.4911327,43.8278589 C34.0454579,44.418618 34.9779331,44.452061 35.5738743,43.9025561 C36.1698154,43.3530511 36.2035519,42.4286844 35.6492267,41.8379253 L35.6492267,41.8379253 Z" id="mouth" fill="#252B39" fill-rule="nonzero" transform="translate(27.938602, 41.396884) scale(1, -1) translate(-27.938602, -41.396884) "></path>
                    <path d="M12.9666756,21.3991364 C11.8658534,21.818028 10.9974589,22.6307204 10.5069705,23.6678681 C10.2190713,24.2766367 9.48784936,24.5387823 8.87374062,24.2533865 C8.25963187,23.9679908 7.9951868,23.2431273 8.28308601,22.6343587 C9.04041285,21.0329758 10.3869976,19.772766 12.0864736,19.126071 C13.6321668,18.5378944 15.305837,18.5192092 16.8396887,19.0429456 C17.4809578,19.2619081 17.8217479,19.9547432 17.6008647,20.5904361 C17.3799815,21.2261289 16.6810689,21.5639557 16.0397998,21.3449932 C15.0470381,21.0060129 13.9681268,21.0180581 12.9666756,21.3991364 Z M42.1270524,21.5968684 C41.1256012,21.2157901 40.0466899,21.2037449 39.0539282,21.5427251 C38.4126591,21.7616876 37.7137465,21.4238609 37.4928633,20.788168 C37.27198,20.1524751 37.6127702,19.45964 38.2540393,19.2406775 C39.7878909,18.7169412 41.4615612,18.7356264 43.0072544,19.323803 C44.7067304,19.9704979 46.0533151,21.2307078 46.810642,22.8320906 C47.0985412,23.4408593 46.8340961,24.1657228 46.2199874,24.4511185 C45.6058786,24.7365142 44.8746567,24.4743687 44.5867575,23.8656 C44.096269,22.8284523 43.2278746,22.0157599 42.1270524,21.5968684 Z M39.8498297,33.3547989 C37.9507453,33.3547989 36.4112333,31.618785 36.4112333,29.4773033 C36.4112333,27.3358217 37.9507453,25.5998078 39.8498297,25.5998078 C41.7489141,25.5998078 43.2884262,27.3358217 43.2884262,29.4773033 C43.2884262,31.618785 41.7489141,33.3547989 39.8498297,33.3547989 Z M15.2884262,33.3547989 C13.3893418,33.3547989 11.8498297,31.618785 11.8498297,29.4773033 C11.8498297,27.3358217 13.3893418,25.5998078 15.2884262,25.5998078 C17.1875106,25.5998078 18.7270227,27.3358217 18.7270227,29.4773033 C18.7270227,31.618785 17.1875106,33.3547989 15.2884262,33.3547989 Z" id="eyes" fill="#252B39" fill-rule="nonzero"></path>
                </g>
            </g>
        </g>
    </g>
</svg>