<?xml version="1.0" encoding="UTF-8"?>
<svg width="40px" height="42px" viewBox="0 0 40 42" version="1.1" xmlns="http://www.w3.org/2000/svg" xmlns:xlink="http://www.w3.org/1999/xlink">
    <!-- Generator: Sketch 55.2 (78181) - https://sketchapp.com -->
    <title>ic_menu</title>
    <desc>Created with Sketch.</desc>
    <g id="Page-1" stroke="none" stroke-width="1" fill="none" fill-rule="evenodd">
        <g id="Real-Time-Voting-App-Main-Screen-ver.2" transform="translate(-16.000000, -67.000000)">
            <g id="Header" transform="translate(-1.000000, 42.000000)">
                <g id="ic_menu" transform="translate(17.000000, 25.000000)">
                    <g id="btn_bg">
                        <rect id="Rectangle" fill="#C4C4C4" x="0" y="2" width="40" height="40" rx="10"></rect>
                        <rect id="Rectangle" fill="#FFFFFF" x="0" y="0" width="40" height="40" rx="10"></rect>
                    </g>
                    <path d="M9.4570553,13 L30.5429447,13 C30.8710678,13 31.1230979,13.0603366 31.3349497,13.1736363 C31.5468016,13.2869359 31.7130641,13.4531984 31.8263637,13.6650503 C31.9396634,13.8769021 32,14.1289322 32,14.4570553 L32,14.5429447 C32,14.8710678 31.9396634,15.1230979 31.8263637,15.3349497 C31.7130641,15.5468016 31.5468016,15.7130641 31.3349497,15.8263637 C31.1230979,15.9396634 30.8710678,16 30.5429447,16 L9.4570553,16 C9.12893216,16 8.87690211,15.9396634 8.66505027,15.8263637 C8.45319842,15.7130641 8.28693586,15.5468016 8.17363625,15.3349497 C8.06033665,15.1230979 8,14.8710678 8,14.5429447 L8,14.4570553 C8,14.1289322 8.06033665,13.8769021 8.17363625,13.6650503 C8.28693586,13.4531984 8.45319842,13.2869359 8.66505027,13.1736363 C8.87690211,13.0603366 9.12893216,13 9.4570553,13 Z M9.4570553,19 L23.5429447,19 C23.8710678,19 24.1230979,19.0603366 24.3349497,19.1736363 C24.5468016,19.2869359 24.7130641,19.4531984 24.8263637,19.6650503 C24.9396634,19.8769021 25,20.1289322 25,20.4570553 L25,20.5429447 C25,20.8710678 24.9396634,21.1230979 24.8263637,21.3349497 C24.7130641,21.5468016 24.5468016,21.7130641 24.3349497,21.8263637 C24.1230979,21.9396634 23.8710678,22 23.5429447,22 L9.4570553,22 C9.12893216,22 8.87690211,21.9396634 8.66505027,21.8263637 C8.45319842,21.7130641 8.28693586,21.5468016 8.17363625,21.3349497 C8.06033665,21.1230979 8,20.8710678 8,20.5429447 L8,20.4570553 C8,20.1289322 8.06033665,19.8769021 8.17363625,19.6650503 C8.28693586,19.4531984 8.45319842,19.2869359 8.66505027,19.1736363 C8.87690211,19.0603366 9.12893216,19 9.4570553,19 Z M9.4570553,25 L16.5429447,25 C16.8710678,25 17.1230979,25.0603366 17.3349497,25.1736363 C17.5468016,25.2869359 17.7130641,25.4531984 17.8263637,25.6650503 C17.9396634,25.8769021 18,26.1289322 18,26.4570553 L18,26.5429447 C18,26.8710678 17.9396634,27.1230979 17.8263637,27.3349497 C17.7130641,27.5468016 17.5468016,27.7130641 17.3349497,27.8263637 C17.1230979,27.9396634 16.8710678,28 16.5429447,28 L9.4570553,28 C9.12893216,28 8.87690211,27.9396634 8.66505027,27.8263637 C8.45319842,27.7130641 8.28693586,27.5468016 8.17363625,27.3349497 C8.06033665,27.1230979 8,26.8710678 8,26.5429447 L8,26.4570553 C8,26.1289322 8.06033665,25.8769021 8.17363625,25.6650503 C8.28693586,25.4531984 8.45319842,25.2869359 8.66505027,25.1736363 C8.87690211,25.0603366 9.12893216,25 9.4570553,25 Z" fill="#A0A4AD"></path>
                </g>
            </g>
        </g>
    </g>
</svg>